<svg xmlns:dc="http://purl.org/dc/elements/1.1/" xmlns:cc="http://creativecommons.org/ns#" xmlns:rdf="http://www.w3.org/1999/02/22-rdf-syntax-ns#" xmlns:svg="http://www.w3.org/2000/svg" xmlns="http://www.w3.org/2000/svg" xmlns:sodipodi="http://sodipodi.sourceforge.net/DTD/sodipodi-0.dtd" xmlns:inkscape="http://www.inkscape.org/namespaces/inkscape" version="1.1" x="0px" y="0px" viewBox="0 0 100 100"><g transform="translate(0,-952.36218)"><path style="" d="m 69.986559,959.86218 c -4.6257,0 -8.38957,3.7639 -8.38957,8.3896 0.002,4.6544 3.76515,8.4232 8.38957,8.4231 4.65452,0 8.38957,-3.7686 8.38957,-8.4231 0,-4.6258 -3.73505,-8.3896 -8.38957,-8.3896 z m -26.88018,9.2006 c -0.74294,0 -1.37398,0.2008 -1.88487,0.5257 l -13.9155,8.4902 c -4.26521,2.6034 -0.81429,8.2579 3.45092,5.6546 l 12.91994,-7.8862 9.21175,2.0191 -11.01832,16.7232 c -2.53079,4.4626 -4.02173,8.52362 -0.36354,10.97922 l 18.63045,12.0139 -10.70511,20.3698 c -1.21212,2.3073 -0.28502,5.163 2.0135,6.3705 2.3073,1.2122 5.10805,0.3106 6.32016,-1.9967 l 12.61231,-23.9942 0.0224,-0.045 c 1.25474,-2.1628 0.58247,-4.9042 -1.54368,-6.2754 l -13.30026,-8.5854 10.01715,-15.19632 3.74174,8.2218 c 0.77601,1.7056 2.10787,2.388 3.36141,2.3323 l 15.61579,0 c 4.99696,0 4.99694,-6.6222 0,-6.6222 l -13.65262,0 -3.9375,-8.6524 c -0.72041,-1.5025 -1.34092,-2.147 -2.56722,-3.1153 l -9.7207,-7.243 c -1.47747,-1.0518 -2.23537,-1.3212 -3.93192,-1.7171 l -10.29679,-2.254 c -0.38133,-0.084 -0.74175,-0.1197 -1.07946,-0.1174 z m -4.94426,37.28322 -5.85591,7.8526 -19.64278,0 c -2.60634,0 -4.7037802,2.1465 -4.7037602,4.743 -5e-5,2.6063 2.0974902,4.6646 4.7037602,4.6646 l 21.80728,0.011 c 1.49779,0.065 2.99719,-0.6015 3.97106,-1.9073 l 7.65129,-10.2464 -7.93094,-5.1177 z" fill="#000000"></path></g></svg>