<svg xmlns="http://www.w3.org/2000/svg" xmlns:xlink="http://www.w3.org/1999/xlink" viewBox="0 0 75 75" version="1.1" x="0px" y="0px"><g><path style="" d="M 66.039062 44.140625 C 63.382812 43.246094 60.632812 43.429688 58.242188 44.441406 L 45.019531 25.757812 C 46.015625 24.664062 46.808594 23.359375 47.3125 21.875 C 49.257812 16.125 46.175781 9.894531 40.429688 7.953125 C 34.683594 6.007812 28.453125 9.089844 26.507812 14.835938 C 25.140625 18.878906 26.269531 23.15625 29.054688 26.019531 L 17.015625 44.304688 C 16.875 44.25 16.742188 44.1875 16.597656 44.140625 C 10.851562 42.199219 4.617188 45.28125 2.675781 51.027344 C 0.734375 56.769531 3.8125 63.003906 9.558594 64.945312 C 15.304688 66.890625 21.539062 63.804688 23.480469 58.0625 C 23.613281 57.671875 23.71875 57.28125 23.804688 56.886719 L 51.800781 56.886719 C 52.601562 60.523438 55.214844 63.667969 59 64.945312 C 64.746094 66.890625 70.976562 63.808594 72.921875 58.0625 C 74.863281 52.316406 71.78125 46.085938 66.039062 44.140625 Z M 32.976562 28.59375 C 33.113281 28.648438 33.25 28.710938 33.390625 28.757812 C 36.046875 29.65625 38.796875 29.46875 41.1875 28.457031 L 54.410156 47.140625 C 53.414062 48.230469 52.621094 49.539062 52.117188 51.023438 C 51.984375 51.414062 51.882812 51.804688 51.796875 52.199219 L 23.796875 52.199219 C 23.355469 50.199219 22.367188 48.351562 20.929688 46.878906 Z M 32.976562 28.59375 " stroke="none" fill-rule="nonzero" fill="rgb(0%,0%,0%)" fill-opacity="1"></path></g></svg>